# xmcd CD database file
#
# Track frame offsets:
#	150
#	11403
#	34855
#	43846
#	64083
#	80926
#	98076
#	108450
#	122055
#	137788
#	147370
#	157847
#	168869
#	180068
#	196170
#	208237
#
# Disc length: 3036 seconds
#
# Revision: 2
# Processed by: cddbd v1.5.2PL0 Copyright (c) Steve Scherf et al.
# Submitted via: CDex 1.79
#
DISCID=d70bda10
DTITLE=Eric Clapton - Eric Clapton and Friends [CD 2) - Heart Full Of Soul
DYEAR=2001
DGENRE=Soul
TTITLE0=Sweet Music
TTITLE1=24 Hours Too Long
TTITLE2=I Ain't Got You - feat. The Yardbirds
TTITLE3=Evil Hearted You, Goodbye Baby, Good Morning Little School, Standup (Medley)
TTITLE4=(They Call it) Stormy Monday Blues - feat. Jack Bruce and Ginger Baker
TTITLE5=Big Boss Man - feat. Jack Bruce and Ginger Baker
TTITLE6=Putty In Your Hands
TTITLE7=Jeff's Blues - feat. Jeff Beck
TTITLE8=Train Kept A Rollin'
TTITLE9=Tribute To Elmore
TTITLE10=West Cost Idea
TTITLE11=Heart Full Of Soul - feat. The Yardbirds
TTITLE12=Miles Road
TTITLE13=Little Red Rooster
TTITLE14=Highway 49 - feat. Jimmy Page
TTITLE15=Wang-Dang-Doodle
EXTD=YEAR: 2001
EXTT0=
EXTT1=
EXTT2=feat. The Yardbirds
EXTT3=
EXTT4=feat. Jack Bruce and Ginger Baker
EXTT5=feat. Jack Bruce and Ginger Baker
EXTT6=
EXTT7=feat. Jeff Beck
EXTT8=
EXTT9=
EXTT10=
EXTT11=feat. The Yardbirds
EXTT12=
EXTT13=
EXTT14=feat. Jimmy Page
EXTT15=feat. Jimmy Page
PLAYORDER=
